<svg xmlns="http://www.w3.org/2000/svg" width="100%" height="100%" viewBox="0 0 1334 1334">
  <path fill="#0c5e86" fill-rule="nonzero" d="M871.043,177.981c-156.374,-0.002 -283.149,126.764 -283.158,283.138c0.552,13.404 2.056,26.753 4.5,39.944c-26.11,-13.251 -54.969,-20.184 -84.25,-20.24c-103.239,0.002 -186.934,83.696 -186.935,186.935c0.482,5.601 1.216,11.177 2.2,16.711c-27.629,-10.975 -57.079,-16.644 -86.807,-16.711c-130.668,-0.004 -236.597,105.926 -236.593,236.593c0.949,115.328 84.92,213.167 198.77,231.597c12.421,2.662 25.037,4.319 37.724,4.956l0.199,0l232.45,-0.077l0,-184.517l136.643,0c12.165,-58.677 35.528,-114.462 68.807,-164.297l-15.958,-15.958l-81.137,-81.138l35.127,-35.127l31.301,-31.281l35.425,-35.425l28.645,-28.645l49.103,49.103l47.953,47.953c49.918,-33.373 105.815,-56.791 164.614,-68.966l0,-136.603l184.338,0c-2.839,-154.265 -128.669,-277.865 -282.96,-277.945l-0.001,-0.002Z"/>
  <path fill="#0c5e86" fill-rule="nonzero" d="M1154.202,809.874c-28.661,-11.082 -59.707,-17.405 -92.278,-17.405c-141.509,0 -256.238,114.709 -256.238,256.238c0,32.478 6.282,63.428 17.306,92.021l331.211,-0.115l0,-330.738Z"/>
</svg>
